<svg width="202" height="396" viewBox="0 0 202 396" fill="none" xmlns="http://www.w3.org/2000/svg">
<path d="M104.222 394.438C101.935 396.511 98.4485 396.511 96.1615 394.438L64.9986 366.183C63.5516 364.872 62.8346 362.939 63.0736 361.002L74.0406 272.355C74.4126 269.349 76.9665 267.092 79.9945 267.092H122.279C125.354 267.092 127.932 269.417 128.247 272.477L137.381 361.071C137.576 362.97 136.857 364.849 135.442 366.132L104.222 394.438Z" fill="#FF8000"/>
<path d="M34.6848 31.4063C30.9481 33.5918 29.7921 38.3311 32.1028 41.9917C34.4134 45.6523 39.3158 46.8481 43.0525 44.6626C46.7892 42.477 47.9452 37.7378 45.6345 34.0772C43.3238 30.4166 38.4215 29.2208 34.6848 31.4063Z" fill="#FF8000"/>
<path d="M156.522 28.0295C152.422 30.4272 151.118 35.5699 153.609 39.516C156.1 43.4621 161.442 44.7173 165.542 42.3196C169.641 39.9219 170.945 34.7792 168.454 30.8331C165.964 26.887 160.621 25.6318 156.522 28.0295Z" fill="#FF8000"/>
<path d="M38.6919 40.0916L80.6919 54.0916" stroke="#FF8000" stroke-width="5" stroke-linecap="round"/>
<path d="M90.3794 52.6186C87.9829 49.0137 83.0522 47.9318 79.3664 50.2022C75.6807 52.4726 74.6356 57.2355 77.0322 60.8404C79.4288 64.4454 84.3595 65.5273 88.0452 63.2569C91.7309 60.9865 92.776 56.2236 90.3794 52.6186Z" fill="#FF8000"/>
<path d="M69.7717 157.902L130.692 69.0916" stroke="#FF8000" stroke-width="5" stroke-linecap="round"/>
<path d="M74.0398 161.035L139.852 156.189" stroke="#FF8000" stroke-width="5" stroke-linecap="round"/>
<path d="M124.677 61.4725C120.577 63.8702 119.273 69.0129 121.764 72.959C124.255 76.9051 129.597 78.1603 133.697 75.7626C137.796 73.3649 139.1 68.2222 136.609 64.2761C134.119 60.33 128.776 59.0748 124.677 61.4725Z" fill="#FF8000"/>
<path d="M105.858 4.34148C101.758 6.7392 100.454 11.8819 102.945 15.828C105.436 19.7741 110.779 21.0293 114.878 18.6316C118.978 16.2339 120.282 11.0912 117.791 7.1451C115.3 3.199 109.957 1.94377 105.858 4.34148Z" fill="#FF8000"/>
<path d="M7.42266 58.6855C3.32319 61.0832 2.01918 66.2259 4.51007 70.172C7.00097 74.1181 12.3435 75.3733 16.443 72.9756C20.5424 70.5779 21.8465 65.4352 19.3556 61.4891C16.8647 57.543 11.5221 56.2878 7.42266 58.6855Z" fill="#FF8000"/>
<path d="M7.42266 143.684C3.32319 146.082 2.01918 151.225 4.51007 155.171C7.00097 159.117 12.3435 160.372 16.443 157.974C20.5424 155.577 21.8465 150.434 19.3556 146.488C16.8647 142.542 11.5221 141.287 7.42266 143.684Z" fill="#FF8000"/>
<path d="M144.322 156.411C144.721 152.1 141.548 148.306 137.235 147.936C132.922 147.566 129.102 150.76 128.703 155.07C128.304 159.381 131.477 163.175 135.79 163.545C140.103 163.915 143.923 160.721 144.322 156.411Z" fill="#FF8000"/>
<path d="M137.692 156.092L128.835 69.6715" stroke="#FF8000" stroke-width="5" stroke-linecap="round"/>
<path d="M80.6919 56.0916L128.836 68.2785" stroke="#FF8000" stroke-width="5" stroke-linecap="round"/>
<path d="M125.94 71.3535L159.232 37.6226" stroke="#FF8000" stroke-width="5" stroke-linecap="round"/>
<path d="M127.387 68.8564L186.692 128.091" stroke="#FF8000" stroke-width="5" stroke-linecap="round"/>
<path d="M112.938 13.8665L128.835 65.4915" stroke="#FF8000" stroke-width="5" stroke-linecap="round"/>
<path d="M62.2448 158.852L12.2598 152.82" stroke="#FF8000" stroke-width="5" stroke-linecap="round"/>
<path d="M66.6918 158.091L13.0278 68.6115" stroke="#FF8000" stroke-width="5" stroke-linecap="round"/>
<path d="M83.8828 53.5055L67.1348 159.68" stroke="#FF8000" stroke-width="5" stroke-linecap="round"/>
<path d="M139.272 158.852L165.792 182.497" stroke="#FF8000" stroke-width="5" stroke-linecap="round"/>
<path d="M67.7036 162.627L77.7036 234.627" stroke="#FF8000" stroke-width="5" stroke-linecap="round"/>
<path d="M127.704 231.627H77.7036" stroke="#FF8000" stroke-width="5" stroke-linecap="round"/>
<path d="M191.082 132.376L137.581 154.819" stroke="#FF8000" stroke-width="5" stroke-linecap="round"/>
<path d="M133.762 156.926L126.25 225.63" stroke="#FF8000" stroke-width="5" stroke-linecap="round"/>
<path d="M168.92 187.306C165.493 189.952 160.469 189.401 157.698 186.075C154.926 182.75 155.457 177.909 158.884 175.263C162.31 172.617 167.334 173.168 170.105 176.494C172.877 179.819 172.346 184.66 168.92 187.306Z" fill="#FF8000"/>
<path d="M194.97 137.142C191.544 139.787 186.52 139.236 183.748 135.911C180.977 132.586 181.508 127.745 184.934 125.099C188.36 122.453 193.384 123.004 196.156 126.33C198.927 129.655 198.396 134.496 194.97 137.142Z" fill="#FF8000"/>
<path d="M186.511 73.5966C182.754 75.7886 181.576 80.5169 183.879 84.1575C186.183 87.798 191.096 88.9723 194.853 86.7803C198.61 84.5883 199.788 79.86 197.484 76.2194C195.181 72.5789 190.268 71.4046 186.511 73.5966Z" fill="#FF8000"/>
<path d="M62.9607 153.859C58.8912 155.335 56.8713 159.799 58.4492 163.83C60.0271 167.861 64.6052 169.932 68.6747 168.456C72.7442 166.98 74.7641 162.516 73.1862 158.485C71.6083 154.454 67.0302 152.383 62.9607 153.859Z" fill="#FF8000"/>
<path d="M72.3665 236.95C75.4933 239.944 80.5498 239.931 83.6605 236.92C86.7712 233.91 86.7581 229.042 83.6313 226.049C80.5045 223.055 75.448 223.068 72.3373 226.079C69.2266 229.089 69.2396 233.957 72.3665 236.95Z" fill="#FF8000"/>
<path d="M125.453 237.274C129.733 237.923 133.769 234.985 134.468 230.713C135.167 226.441 132.264 222.452 127.984 221.803C123.704 221.154 119.668 224.092 118.969 228.364C118.27 232.636 121.173 236.625 125.453 237.274Z" fill="#FF8000"/>
<path d="M163.912 181.332L130.667 228.029" stroke="#FF8000" stroke-width="5" stroke-linecap="round"/>
<path d="M191.612 133.332L165.022 185.598" stroke="#FF8000" stroke-width="5" stroke-linecap="round"/>
<path d="M192.722 83.1985L191.612 129.895" stroke="#FF8000" stroke-width="5" stroke-linecap="round"/>
<path d="M12.6919 153.092L77.7039 232.628" stroke="#FF8000" stroke-width="5" stroke-linecap="round"/>
<path d="M191.612 79.9985L161.082 34.9635" stroke="#FF8000" stroke-width="5" stroke-linecap="round"/>
<path d="M160.582 34.1325L111.531 9.59949" stroke="#FF8000" stroke-width="5" stroke-linecap="round"/>
<path d="M110.704 9.62744L38.4658 38.3994" stroke="#FF8000" stroke-width="5" stroke-linecap="round"/>
<path d="M35.3696 37.3325L12.0986 65.9095" stroke="#FF8000" stroke-width="5" stroke-linecap="round"/>
<path d="M9.69189 68.0916L10.9919 150.401" stroke="#FF8000" stroke-width="5" stroke-linecap="round"/>
<path d="M125.192 258.092H76.1919C75.3635 258.092 74.6919 258.763 74.6919 259.592C74.6919 260.42 75.3635 261.092 76.1919 261.092H125.192C126.02 261.092 126.692 260.42 126.692 259.592C126.692 258.763 126.02 258.092 125.192 258.092Z" fill="#FF8000"/>
<path d="M125.192 244.092H76.1919C75.3635 244.092 74.6919 244.763 74.6919 245.592C74.6919 246.42 75.3635 247.092 76.1919 247.092H125.192C126.02 247.092 126.692 246.42 126.692 245.592C126.692 244.763 126.02 244.092 125.192 244.092Z" fill="#FF8000"/>
<path d="M125.192 251.092H76.1919C75.3635 251.092 74.6919 251.763 74.6919 252.592C74.6919 253.42 75.3635 254.092 76.1919 254.092H125.192C126.02 254.092 126.692 253.42 126.692 252.592C126.692 251.763 126.02 251.092 125.192 251.092Z" fill="#FF8000"/>
</svg>
